<svg width="70" height="83" viewBox="0 0 70 83" fill="none" xmlns="http://www.w3.org/2000/svg">
<path fill-rule="evenodd" clip-rule="evenodd" d="M35.2778 45.4862H35.0132C30.1682 45.4005 26.2492 43.6351 23.372 40.2585C17.0057 32.8197 18.064 20.0675 18.1797 18.8505C18.5931 9.64629 22.8263 5.27556 26.2988 3.23589C29.7548 1.19622 33.3597 0.887695 35.1951 0.887695H35.2944H35.3605H35.4763C38.8165 0.956256 41.8095 1.77898 44.3726 3.30445C47.812 5.34412 51.9791 9.71485 52.3925 18.8505C52.5082 20.0675 53.5665 32.8197 47.2002 40.2585C44.3064 43.6351 40.3874 45.4005 35.5424 45.4862H35.377H35.2778ZM34.6825 49.5112H35.0107H35.1338H35.3389C40.3179 49.426 44.5086 47.9575 47.8409 45.1525C47.8771 45.1745 47.9112 45.1968 47.9432 45.2194C48.0113 45.2705 54.402 49.7014 62.0878 51.6612C62.1134 51.6697 62.1432 51.6782 62.173 51.6867C62.1888 51.6912 62.2046 51.6957 62.2197 51.7002C62.2332 51.7043 62.2462 51.7083 62.2583 51.7123C69.6368 54.2285 69.8748 62.0873 69.9775 65.4749L69.9782 65.4991C69.9782 65.578 69.9827 65.6525 69.9871 65.7247C69.9912 65.7928 69.9952 65.859 69.9952 65.9251V65.9763C70.0123 66.8624 70.0293 71.4126 69.1772 73.6791C69.0068 74.1222 68.683 74.4972 68.291 74.7528L68.2838 74.7574C67.6742 75.1437 55.4386 82.8988 35.0255 82.8988C14.5242 82.8988 2.2712 75.0936 1.75994 74.7528C1.35094 74.4972 1.04419 74.1222 0.873769 73.6791C-0.0294452 71.3955 -0.0124035 66.8454 0.00463815 65.9592V65.9081C0.0216798 65.7718 0.0216803 65.6354 0.0216803 65.4821L0.0224628 65.4563C0.125104 62.0847 0.364284 54.228 7.74161 51.6952C7.79273 51.6782 7.84386 51.6612 7.91202 51.6441C15.632 49.6843 21.9885 45.2535 22.0567 45.2023C22.0909 45.1782 22.1275 45.1544 22.1665 45.1308C25.4912 47.9499 29.6906 49.4257 34.6825 49.5112Z" fill="white"/>
</svg>
